# xmcd CD database file
#
# Track frame offsets:
#	150
#	25320
#	42635
#	62125
#	81185
#	111135
#	130760
#	156905
#	169160
#	195290
#	217465
#	234470
#	260387
#	280254
#
# Disc length: 3993 seconds
#
# Revision: 0
# Processed by: cddbd v1.5.2PL0 Copyright (c) Steve Scherf et al.
# Submitted via: CDex 1.70beta2
#
DISCID=cc0f970e
DTITLE=Climax Jazz Band - Konnichiwa! II
DYEAR=1996
DGENRE=Jazz
TTITLE0=Weary Blues
TTITLE1=Baby Won't You Please Come Home
TTITLE2=Basin Street Blues
TTITLE3=Panama
TTITLE4=Blue Autumn
TTITLE5=Down By The Riverside
TTITLE6=Just A Closer Walk
TTITLE7=Maple Leaf Rag
TTITLE8=Yes Sir! That's My Babe
TTITLE9=Chimes Blue
TTITLE10=Some Of These Days
TTITLE11=Precious Lord
TTITLE12=After You've Gone
TTITLE13=When The Saints
EXTD=YEAR: 1996
EXTT0=
EXTT1=
EXTT2=
EXTT3=
EXTT4=
EXTT5=
EXTT6=
EXTT7=
EXTT8=
EXTT9=
EXTT10=
EXTT11=
EXTT12=
EXTT13=
PLAYORDER=
